# xmcd CD database file
#
# Track frame offsets:
#	150
#	12083
#	23814
#	36616
#	48535
#	61834
#	74907
#	87688
#	101698
#	114682
#	127682
#	141394
#	152984
#	164685
#	177976
#	190666
#	204280
#	215934
#	228240
#	242285
#	255664
#	269618
#	282555
#	294569
#	307750
#
# Disc length: 4264 seconds
#
# Revision: 0
# Processed by: cddbd v1.5.1PL0 Copyright (c) Steve Scherf et al.
# Submitted via: CDex 1.51
#
DISCID=8010a619
DTITLE=Memphis Minnie - Queen of the Delta Blues, Volume 2, Disc C
DYEAR=2004
DGENRE=Blues
TTITLE0=I'm Not a Bad Gal
TTITLE1=You Got to Get Out of Here
TTITLE2=Don't Turn the Card
TTITLE3=Looking the World Over
TTITLE4=It Was You Baby
TTITLE5=You Need a Friend
TTITLE6=I Am Sailin'
TTITLE7=Remember Me Blues
TTITLE8=Black Rat Swing
TTITLE9=Just Had to Holler
TTITLE10=Fashion Plate Daddy 
TTITLE11=When You Love Me 
TTITLE12=Please Set a Date 
TTITLE13=Mean Mistreater Blues 
TTITLE14=Love Come and Go 
TTITLE15=True Love 
TTITLE16=When My Man Comes Home 
TTITLE17=I'm So Glad 
TTITLE18=Hold Me Blues, Take 1 
TTITLE19=Hold Me Blues, Take 2 
TTITLE20=Hold Me Blues, Take 5 
TTITLE21=Hold Me Blues, Take 7 
TTITLE22=Killer Diller, Take 1 
TTITLE23=Killer Diller, Take 4 
TTITLE24=Moanin' Blues, Take 1 
EXTD=YEAR: 2004
EXTT0=
EXTT1=
EXTT2=
EXTT3=
EXTT4=
EXTT5=
EXTT6=
EXTT7=
EXTT8=
EXTT9=
EXTT10=
EXTT11=
EXTT12=
EXTT13=
EXTT14=
EXTT15=
EXTT16=
EXTT17=
EXTT18=
EXTT19=
EXTT20=
EXTT21=
EXTT22=
EXTT23=
EXTT24=
PLAYORDER=
